REM DIRINDEX 1\2,1\3,1\4,1\6,1\5\7,1\5\8
REM DIRNAME cjc114,folder01,folder02,folder03,folder04,folder05,folder06,folder07
TITLE ""
FILE "DB4500_5th_2A_40.mp3" MP3
  TRACK 01 AUDIO
    TITLE "0:"
    INDEX 01 00:00:00
  TRACK 02 AUDIO
    TITLE "2:cjc114_1305"
    INDEX 01 00:00:01
  TRACK 03 AUDIO
    TITLE "0:"
    INDEX 01 00:01:09
  TRACK 04 AUDIO
    TITLE "3:cjc114_1306"
    INDEX 01 00:01:40
  TRACK 05 AUDIO
    TITLE "0:"
    INDEX 01 00:02:63
  TRACK 06 AUDIO
    TITLE "4:cjc114_1307"
    INDEX 01 00:03:17
  TRACK 07 AUDIO
    TITLE "0:"
    INDEX 01 00:06:04
  TRACK 08 AUDIO
    TITLE "2:cjc114_1308"
    INDEX 01 00:06:59
  TRACK 09 AUDIO
    TITLE "0:"
    INDEX 01 00:07:74
  TRACK 10 AUDIO
    TITLE "3:cjc114_1309"
    INDEX 01 00:08:26
  TRACK 11 AUDIO
    TITLE "0:"
    INDEX 01 00:09:53
  TRACK 12 AUDIO
    TITLE "4:cjc114_1310"
    INDEX 01 00:10:10
  TRACK 13 AUDIO
    TITLE "0:"
    INDEX 01 00:12:71
  TRACK 14 AUDIO
    TITLE "2:cjc114_1311"
    INDEX 01 00:13:49
  TRACK 15 AUDIO
    TITLE "0:"
    INDEX 01 00:14:53
  TRACK 16 AUDIO
    TITLE "3:cjc114_1312"
    INDEX 01 00:15:05
  TRACK 17 AUDIO
    TITLE "0:"
    INDEX 01 00:16:30
  TRACK 18 AUDIO
    TITLE "4:cjc114_1313"
    INDEX 01 00:16:57
  TRACK 19 AUDIO
    TITLE "0:"
    INDEX 01 00:19:71
  TRACK 20 AUDIO
    TITLE "2:cjc114_1314"
    INDEX 01 00:20:49
  TRACK 21 AUDIO
    TITLE "0:"
    INDEX 01 00:21:49
  TRACK 22 AUDIO
    TITLE "3:cjc114_1315"
    INDEX 01 00:22:01
  TRACK 23 AUDIO
    TITLE "0:"
    INDEX 01 00:24:20
  TRACK 24 AUDIO
    TITLE "4:cjc114_1316"
    INDEX 01 00:24:47
  TRACK 25 AUDIO
    TITLE "0:"
    INDEX 01 00:27:02
  TRACK 26 AUDIO
    TITLE "2:cjc114_1317"
    INDEX 01 00:27:57
  TRACK 27 AUDIO
    TITLE "0:"
    INDEX 01 00:28:74
  TRACK 28 AUDIO
    TITLE "3:cjc114_1318"
    INDEX 01 00:29:27
  TRACK 29 AUDIO
    TITLE "0:"
    INDEX 01 00:30:46
  TRACK 30 AUDIO
    TITLE "4:cjc114_1319"
    INDEX 01 00:30:71
  TRACK 31 AUDIO
    TITLE "0:"
    INDEX 01 00:34:10
  TRACK 32 AUDIO
    TITLE "2:cjc114_1320"
    INDEX 01 00:34:63
  TRACK 33 AUDIO
    TITLE "0:"
    INDEX 01 00:35:64
  TRACK 34 AUDIO
    TITLE "3:cjc114_1321"
    INDEX 01 00:36:17
  TRACK 35 AUDIO
    TITLE "0:"
    INDEX 01 00:37:18
  TRACK 36 AUDIO
    TITLE "4:cjc114_1322"
    INDEX 01 00:37:50
  TRACK 37 AUDIO
    TITLE "0:"
    INDEX 01 00:40:01
  TRACK 38 AUDIO
    TITLE "2:cjc114_1323"
    INDEX 01 00:40:54
  TRACK 39 AUDIO
    TITLE "0:"
    INDEX 01 00:41:57
  TRACK 40 AUDIO
    TITLE "3:cjc114_1324"
    INDEX 01 00:42:08
  TRACK 41 AUDIO
    TITLE "0:"
    INDEX 01 00:43:25
  TRACK 42 AUDIO
    TITLE "4:cjc114_1325"
    INDEX 01 00:43:54
  TRACK 43 AUDIO
    TITLE "0:"
    INDEX 01 00:46:39
  TRACK 44 AUDIO
    TITLE "2:cjc114_1326"
    INDEX 01 00:47:17
  TRACK 45 AUDIO
    TITLE "0:"
    INDEX 01 00:48:18
  TRACK 46 AUDIO
    TITLE "3:cjc114_1327"
    INDEX 01 00:48:48
  TRACK 47 AUDIO
    TITLE "0:"
    INDEX 01 00:49:65
  TRACK 48 AUDIO
    TITLE "4:cjc114_1328"
    INDEX 01 00:50:17
  TRACK 49 AUDIO
    TITLE "0:"
    INDEX 01 00:53:21
  TRACK 50 AUDIO
    TITLE "2:cjc114_1329"
    INDEX 01 00:54:01
  TRACK 51 AUDIO
    TITLE "0:"
    INDEX 01 00:55:20
  TRACK 52 AUDIO
    TITLE "3:cjc114_1330"
    INDEX 01 00:55:46
  TRACK 53 AUDIO
    TITLE "0:"
    INDEX 01 00:56:45
  TRACK 54 AUDIO
    TITLE "4:cjc114_1331"
    INDEX 01 00:56:74
  TRACK 55 AUDIO
    TITLE "0:"
    INDEX 01 01:01:17
  TRACK 56 AUDIO
    TITLE "2:cjc114_1332"
    INDEX 01 01:01:70
  TRACK 57 AUDIO
    TITLE "0:"
    INDEX 01 01:03:04
  TRACK 58 AUDIO
    TITLE "3:cjc114_1333"
    INDEX 01 01:03:31
  TRACK 59 AUDIO
    TITLE "0:"
    INDEX 01 01:04:39
  TRACK 60 AUDIO
    TITLE "4:cjc114_1334"
    INDEX 01 01:04:68
  TRACK 61 AUDIO
    TITLE "0:"
    INDEX 01 01:09:28
  TRACK 62 AUDIO
    TITLE "2:cjc114_1335"
    INDEX 01 01:10:06
  TRACK 63 AUDIO
    TITLE "0:"
    INDEX 01 01:11:05
  TRACK 64 AUDIO
    TITLE "3:cjc114_1336"
    INDEX 01 01:11:35
  TRACK 65 AUDIO
    TITLE "0:"
    INDEX 01 01:12:54
  TRACK 66 AUDIO
    TITLE "4:cjc114_1337"
    INDEX 01 01:13:04
  TRACK 67 AUDIO
    TITLE "0:"
    INDEX 01 01:16:36
  TRACK 68 AUDIO
    TITLE "4:cjc114_1338"
    INDEX 01 01:17:26
  TRACK 69 AUDIO
    TITLE "0:"
    INDEX 01 01:20:48
  TRACK 70 AUDIO
    TITLE "2:cjc114_1339"
    INDEX 01 01:21:27
  TRACK 71 AUDIO
    TITLE "0:"
    INDEX 01 01:22:37
  TRACK 72 AUDIO
    TITLE "3:cjc114_1340"
    INDEX 01 01:22:66
  TRACK 73 AUDIO
    TITLE "0:"
    INDEX 01 01:24:36
  TRACK 74 AUDIO
    TITLE "4:cjc114_1341"
    INDEX 01 01:24:65
  TRACK 75 AUDIO
    TITLE "0:"
    INDEX 01 01:27:59
